<svg id="Layer_1" data-name="Layer 1" xmlns="http://www.w3.org/2000/svg" width="912.55" height="841.89" viewBox="0 0 912.55 841.89">
  <g>
    <path d="M201.82,665.17h-64.5a3,3,0,0,1-3-3v-122a6,6,0,0,0-6-6h-22a6,6,0,0,0-6,6v147a6,6,0,0,0,6,6h95.5a5,5,0,0,0,5-5v-18A5,5,0,0,0,201.82,665.17Z"/>
    <path d="M322.13,610.94c-.66-7.07-4-15.82-11.14-21.56-5.77-4.62-17.84-12.66-40.25-12.66-19.39,0-27.14,3-36.06,10.37-6.17,5.09-9.63,13.79-10,17.23s-.6,4.9-.6,5.75a1.81,1.81,0,0,0,2,2h24.73s1.8-7.21,5.53-11.07a17.33,17.33,0,0,1,11-5.59c2.63-.29,11.74-1.45,18.7,2.38a12.65,12.65,0,0,1,6.41,7.83c1.53,4.14,1.75,15.77,1.75,15.77s-17.19.07-28.26,1c0,0-17.48.22-30,8.38s-18.35,17.48-17.19,34.66,16.9,25.4,21.56,27.44a41.81,41.81,0,0,0,24.76,2c11.08-2.33,23-12.53,25.06-14.57s2.33-3.2,4.08-1.74,0,13.07,1.46,14.23,20.59.75,22.43.58a5.73,5.73,0,0,0,4.66-5.82C322.82,683.7,322.51,615,322.13,610.94Zm-27,44.59a20,20,0,0,1-6,11.31c-2.89,2.95-8.15,7.61-19,8s-15.12-7-17-10.5c-2.19-4-3-8.9-1.91-15.21,1.35-7.68,8.83-11.55,12.23-12.86,6.18-2.37,14.66-2.3,19-2.35a34.29,34.29,0,0,1,8.79.61,5.06,5.06,0,0,1,3.87,3.74C295.45,640.68,295.82,651.17,295.17,655.53Z"/>
    <path d="M414.17,571.76c-14.31,0-27.26,6.89-36.71,18.06l.82-51.05a4.1,4.1,0,0,0-4.09-4.09H350.11a6,6,0,0,0-6,6v147a5.13,5.13,0,0,0,5.11,5.11h21.23c2.24,0,5.44-1.84,5.44-4.09l.18-11.26c9.54,12.17,23.07,19.78,38.1,19.78,28.88,0,52.29-28.09,52.29-62.74S443.05,571.76,414.17,571.76ZM403,673.85c-15.55,0-28.15-17.67-28.15-39.48s12.6-39.48,28.15-39.48,28.15,17.67,28.15,39.48S418.54,673.85,403,673.85Z"/>
    <path d="M319.24,184.17c-33.19-.74-57.32,22.73-58.13,58.72-.75,33.79,18.67,59.63,55.07,60.45,34,.76,65.5-12.94,66.51-57.73C383.65,202.42,353.23,184.93,319.24,184.17Zm28.26,60.25c-.48,21.42-5.66,38.69-26.46,38.22-20-.45-26-18-25.53-39.38s7.23-37,26.83-36.61C342.73,207.1,348,223,347.5,244.42Z"/>
    <path d="M504.32,139.57h-21a6,6,0,0,0-6,6v56.08c-7.43-10.41-17.86-17-30.35-17.23-23.08-.51-48.39,17.51-49.36,60.84-.78,34.83,16.54,56.9,44.4,57.52,14.15.32,26.65-5.93,35.31-17V295a4,4,0,0,0,4,4h23a6,6,0,0,0,6-6V145.57A6,6,0,0,0,504.32,139.57ZM480.49,244c-.52,23.22-12.08,36.12-26,35.81s-24.93-10.62-24.34-36.93c.61-27.09,12.08-36.13,26-35.82C470.46,207.4,481.08,217.71,480.49,244Z"/>
    <path d="M605.34,189.28a8.14,8.14,0,0,0-7.77-5.93c-2.34,0-6.11-.61-14,4.67-5.12,3.41-10.62,9.75-13.88,13.81v-11.5a6,6,0,0,0-6-6h-22a6,6,0,0,0-6,6V292.76a6,6,0,0,0,6,6h22a6,6,0,0,0,6-6V237.41a52.12,52.12,0,0,1,.88-5.38,32.76,32.76,0,0,1,6.85-13c3.21-3.83,8.45-6.67,12.66-8.29,5.22-2,9.38-1.29,10.94-1.32a5.08,5.08,0,0,0,4.23-2c.76-.8,1.35-3.28,1.4-5.62S606.8,194,605.34,189.28Z"/>
    <g>
      <rect x="752.34" y="139.78" width="34.54" height="27.8" rx="6"/>
      <path d="M780.28,183.88h-22a6,6,0,0,0-6,6V309.35a1.81,1.81,0,0,0,0,.23l0,.05a7.88,7.88,0,0,1-7.85,7.56H732.47a6,6,0,0,0-6,6v12a6,6,0,0,0,6,6h24.79l.29,0a29.32,29.32,0,0,0,28.73-29.31c0-.67,0-1.35,0-2a4.4,4.4,0,0,0,0-.51V189.88A6,6,0,0,0,780.28,183.88Z"/>
    </g>
    <path d="M241.26,215.32H178.83a4,4,0,0,0-4,4v15.77a4.27,4.27,0,0,0,4.26,4.27H205.6a5.45,5.45,0,0,1,3.1,1.46,3,3,0,0,1,1.36,2.14s.32,27.86.32,32.16c0,2-4.36,2.52-7.42,2.95-2.39.49-18.27,1.32-26.78.52-7.27-.69-17.88-1.69-29.2-14.31s-11.72-28.86-11.2-52,9.48-33.55,12.63-36.57,14-13.68,34.07-12.63c18.91,1,22.77,9.46,24.12,11.78,2.42,4.16,2.77,11.83,3.14,13.57s2.8,2.3,4.59,2.42,24.72.55,26.26.58,3.62-.54,4.55-3.72.68-7.51.4-10.08c-1.14-10.51-8.28-23.31-22.49-31.42-12.31-7-30-8.44-36.91-8.55-4.93-.09-18.67,0-30.2,2.41-14.13,3-56,17.3-57.26,72.15s19.68,70.4,23.08,73.95,22.81,16.74,54.49,17.45,59.9-7.73,61.51-8.19a10.89,10.89,0,0,0,2.46-1,8.26,8.26,0,0,0,5.16-7.63V219.44A4.13,4.13,0,0,0,241.26,215.32Z"/>
    <path d="M223.18,357.91c-16.47-15.6-30.94-19.18-49.84-21.23-5.62-.61-39.87,0-39.87,0H105.88a5.84,5.84,0,0,0-5.83,5.83V490.34a5.85,5.85,0,0,0,5.83,5.83h69.19c13.21,0,34.67-5.64,49-19.94s20.37-39,20.37-56.77S239.65,373.52,223.18,357.91Zm-25.5,99.32C188.53,471.09,162.49,472,162.49,472l-26.55-.51a2.92,2.92,0,0,1-2.86-2.91V366.23a2.91,2.91,0,0,1,2.75-2.91c11.55-.67,42.4-1.36,55.69,9.11,7,5.55,16.43,17.87,17.13,36.71C209.62,435.44,205.08,446,197.68,457.23Z"/>
    <path d="M365.58,446.58a47.68,47.68,0,0,0,.17-6.66c0-.29,0-.61-.05-.94,0-2.45-.18-4.79-.39-7-.06-1.18-.1-2-.1-2h-.12c-4-33.82-27.16-46.58-52.47-47.15-33.7-.75-55.73,25.18-56.46,57.75s17.06,59.38,53.83,60.2c0,0,20.77,1.32,33.62-6.12,14.34-8.3,17.44-15.72,19.06-19.52a38.44,38.44,0,0,0,2.53-10.67c0-.77.06-2.3-.69-3.08a4,4,0,0,0-3-1.6l-20.68-.46a13.46,13.46,0,0,0-4.61.66,3.73,3.73,0,0,0-2.37,3,19.61,19.61,0,0,1-1.65,5.33,24.89,24.89,0,0,1-6.28,6.75c-1.45.92-7,4.45-13.13,4.31l-1.53-.06c-12.28-.72-22.14-8.66-23.52-30.4l74.52.94S364.82,450.17,365.58,446.58Zm-51.52-42.3c11.22.25,17.75,6.18,19.66,22.72a2,2,0,0,1-2,2.24L288.6,429C291.63,410.25,300.89,404,314.06,404.28Z"/>
    <path d="M433,380.27a88.05,88.05,0,0,0-22.38,3.62C392.7,389.66,388.58,399,387.24,403s-2.95,16.35,2.07,24.71a28.13,28.13,0,0,0,14.3,12.38c3.68,1.67,23.69,8.68,30.45,10,9.15,1.82,16.46,4.81,17.67,7.67,1.92,4.54,1.09,9.93-3,14.72-2.67,3.1-9.57,6.23-16.25,5.9s-13-2.06-15.17-5.57a62.3,62.3,0,0,1-3.67-8.35s.34-3-6.34-3-18.38.67-18.38.67-6.35.67-5.68,5,1.83,13.86,10.69,21.05c4.6,3.73,19.05,12,42.77,10.36s32.47-6.29,39.76-14.71c4.68-5.4,9.69-16,9.35-23.38s-2-15.18-8.36-20.31a55.76,55.76,0,0,0-29.94-12.45c-8.79-1-19.5-4.64-24.33-6.43a11.58,11.58,0,0,1-7.29-12.17c.56-4.36,3.26-8.5,7.75-9.8,4.82-1.4,17.31-1.72,22,1.48a15.94,15.94,0,0,1,6.44,7.9c.95,2.51.36,3.57,1,4.34,1.37,1.64,23.17.68,26.73-.67,1.59-.61,2.13-2,1.67-6-.84-7.17-3-11.36-6.68-14.36s-8-8.72-25.39-11A149.37,149.37,0,0,0,433,380.27Z"/>
    <path d="M815.76,424.23c-.38-6.78-3.28-33.25-25.52-41.87-21.74-8.42-38.75,2-44.34,6.11-2.57,1.9-8.12,7.63-10.8,10.78v-10.6a6,6,0,0,0-6-6H709.77a6,6,0,0,0-6,6V490.3a6,6,0,0,0,6,6H729.1a6,6,0,0,0,6-6V426.68s.15-11.74,8.69-19.63c4.29-4,8.45-5.28,14.78-6.13s12,0,15.41,2.54,6.56,6.11,7.81,9.29c1.9,4.8,2.7,12.66,2.7,12.66V491.2a5.1,5.1,0,0,0,5.1,5.1h21.12a5.1,5.1,0,0,0,5.11-5.1V425A5.59,5.59,0,0,0,815.76,424.23Z"/>
    <path d="M673.7,383.1l-21.59.27c-4.29.09-4.85,2.18-4.85,4.85l-.19,12.35c-8.39-13-21.79-19.92-37.73-19.57-28.36.64-50.54,22.4-49.75,57.85,1,44.11,26.76,60,50.25,59.48,14.76-.33,27.64-9,36.11-22.55l-.41,27.52s.82,11.39-13.71,16.48c-24.15,8.47-32.48-3.78-32.48-3.78-2.83-3.06-4.58-10.06-5.63-10-2.22,0-8.55-.2-13.45,0-4.2.14-17,.56-16,4.14,1.26,4.52,7.91,28.68,40.08,31.18l33.14-1c9,0,41.13-8.73,41.13-39.39l1.24-111.4C679.73,385.31,678.34,383,673.7,383.1ZM620.23,477c-14.14.32-27.92-9.23-28.53-36.8-.6-26.79,13.79-38.68,27.93-39s26.25,12.82,26.78,36.45C647,464.45,634.8,476.69,620.23,477Z"/>
    <g>
      <rect x="507.83" y="336.26" width="34.54" height="27.8" rx="6"/>
      <rect x="507.82" y="383.17" width="34" height="113" rx="6"/>
    </g>
    <path d="M670.69,251.23l22,.27,29.31.36s1.53,0,2.35-2.24c.39-1.08.24-6.51.17-7.66,0-.29,0-.61,0-1,0-2.44-.18-4.78-.39-7l-.1-2h-.12c-4-33.82-27.16-46.58-52.47-47.15-33.7-.75-55.73,25.17-56.46,57.75S632,302,668.78,302.78c0,0,20.77,1.32,33.62-6.12,14.34-8.31,17.44-15.73,19.06-19.52A38.52,38.52,0,0,0,724,266.47c0-.77.06-2.3-.69-3.08a4,4,0,0,0-3-1.6l-20.68-.46A13.46,13.46,0,0,0,695,262a3.73,3.73,0,0,0-2.37,3,19.61,19.61,0,0,1-1.65,5.33,24.89,24.89,0,0,1-6.28,6.75c-1.45.92-7,4.45-13.13,4.31h0l-1.53,0v0c-12.28-.72-22.15-8.66-23.53-30.4l24.2.3Zm2.16-44.91c11.72.26,18.32,6.72,19.89,25L647.39,231C650.42,212.29,659.68,206,672.85,206.32Z"/>
  </g>
</svg>
