<?xml version="1.0" encoding="UTF-8"?>
<svg id="cc-logo" xmlns="http://www.w3.org/2000/svg" viewBox="0 0 200 200">
  <path d="m95.36,100.25l-13.91-13.91c-3.74-3.74-8.84-5.81-14.1-5.71l-11.06.21s19.28,19.28,19.28,19.28l-19.28,19.28,11.11.31c5.28.15,10.37-1.88,14.09-5.6l13.83-13.83"/>
  <path d="m104.76,99.93l13.91,13.91c3.74,3.74,8.84,5.81,14.1,5.71l11.06-.21s-19.28-19.28-19.28-19.28l19.28-19.28-11.11-.31c-5.28-.15-10.37,1.88-14.09,5.6l-13.83,13.83"/>
  <path d="m99.96,124.51l19.35,19.35.21-11.06c.1-5.26-1.97-10.35-5.71-14.1l-13.91-13.91-.04.04-13.83,13.83c-3.72,3.72-5.75,8.82-5.6,14.09l.31,11.11,19.28-19.28"/>
  <path d="m15.88,40.35l28.94,28.94c3.34,3.34,7.85,5.21,12.53,5.21h12.29s-28.98-28.99-28.98-28.99c-3.35-3.35-7.89-5.23-12.6-5.21l-12.18.05Z"/>
  <path d="m40.32,15.92l28.94,28.94c3.34,3.34,5.21,7.85,5.21,12.53v12.29s-28.99-28.98-28.99-28.98c-3.35-3.35-5.23-7.89-5.21-12.6l.05-12.18Z"/>
  <path d="m139.31,192.35l-28.94-28.94c-3.34-3.34-5.21-7.85-5.21-12.53v-12.29s28.99,28.98,28.99,28.98c3.35,3.35,5.23,7.89,5.21,12.6l-.05,12.18Z"/>
  <path d="m60.79,192.27l28.94-28.94c3.34-3.34,5.21-7.85,5.21-12.53v-12.29s-28.99,28.98-28.99,28.98c-3.35,3.35-5.23,7.89-5.21,12.6l.05,12.18Z"/>
  <path d="m81.88,199.9l10.18-10.18c3.34-3.34,5.21-7.85,5.21-12.53v-12.29s-10.23,10.23-10.23,10.23c-3.35,3.35-5.23,7.89-5.21,12.6l.05,12.18Z"/>
  <path d="m118.44,200l-10.18-10.18c-3.34-3.34-5.21-7.85-5.21-12.53v-12.29s10.23,10.23,10.23,10.23c3.35,3.35,5.23,7.89,5.21,12.6l-.05,12.18Z"/>
  <path d="m7.65,60.69l28.94,28.94c3.34,3.34,7.85,5.21,12.53,5.21h12.29s-28.98-28.99-28.98-28.99c-3.35-3.35-7.89-5.23-12.6-5.21l-12.18.05Z"/>
  <path d="m7.73,139.21l28.94-28.94c3.34-3.34,7.85-5.21,12.53-5.21h12.29s-28.98,28.99-28.98,28.99c-3.35,3.35-7.89,5.23-12.6,5.21l-12.18-.05Z"/>
  <path d="m.1,118.12l10.18-10.18c3.34-3.34,7.85-5.21,12.53-5.21h12.29s-10.23,10.23-10.23,10.23c-3.35,3.35-7.89,5.23-12.6,5.21l-12.18-.05Z"/>
  <path d="m0,81.56l10.18,10.18c3.34,3.34,7.85,5.21,12.53,5.21h12.29s-10.23-10.23-10.23-10.23c-3.35-3.35-7.89-5.23-12.6-5.21l-12.18.05Z"/>
  <path d="m160.08,184.54l-28.94-28.94c-3.34-3.34-5.21-7.85-5.21-12.53v-12.29s28.99,28.98,28.99,28.98c3.35,3.35,5.23,7.89,5.21,12.6l-.05,12.18Z"/>
  <path d="m184.51,160.11l-28.94-28.94c-3.34-3.34-7.85-5.21-12.53-5.21h-12.29s28.98,28.99,28.98,28.99c3.35,3.35,7.89,5.23,12.6,5.21l12.18-.05Z"/>
  <path d="m39.99,184.33l29.37-29.37c3.39-3.39,5.29-7.97,5.29-12.72v-12.47s-29.42,29.42-29.42,29.42c-3.4,3.4-5.31,8.01-5.29,12.78l.05,12.36Z"/>
  <path d="m15.75,160.09l29.37-29.37c3.39-3.39,7.97-5.29,12.72-5.29h12.47s-29.42,29.42-29.42,29.42c-3.4,3.4-8.01,5.31-12.78,5.29l-12.36-.05Z"/>
  <path d="m183.97,40.35l-28.94,28.94c-3.34,3.34-7.85,5.21-12.53,5.21h-12.29s28.98-28.99,28.98-28.99c3.35-3.35,7.89-5.23,12.6-5.21l12.18.05Z"/>
  <path d="m159.53,15.92l-28.94,28.94c-3.34,3.34-5.21,7.85-5.21,12.53v12.29s28.99-28.98,28.99-28.98c3.35-3.35,5.23-7.89,5.21-12.6l-.05-12.18Z"/>
  <path d="m192.35,139.31l-28.94-28.94c-3.34-3.34-7.85-5.21-12.53-5.21h-12.29s28.98,28.99,28.98,28.99c3.35,3.35,7.89,5.23,12.6,5.21l12.18-.05Z"/>
  <path d="m192.27,60.79l-28.94,28.94c-3.34,3.34-7.85,5.21-12.53,5.21h-12.29s28.98-28.99,28.98-28.99c3.35-3.35,7.89-5.23,12.6-5.21l12.18.05Z"/>
  <path d="m199.9,81.88l-10.18,10.18c-3.34,3.34-7.85,5.21-12.53,5.21h-12.29s10.23-10.23,10.23-10.23c3.35-3.35,7.89-5.23,12.6-5.21l12.18.05Z"/>
  <path d="m200,118.44l-10.18-10.18c-3.34-3.34-7.85-5.21-12.53-5.21h-12.29s10.23,10.23,10.23,10.23c3.35,3.35,7.89,5.23,12.6,5.21l12.18-.05Z"/>
  <path d="m60.69,7.65l28.94,28.94c3.34,3.34,5.21,7.85,5.21,12.53v12.29s-28.99-28.98-28.99-28.98c-3.35-3.35-5.23-7.89-5.21-12.6l.05-12.18Z"/>
  <path d="m139.21,7.73l-28.94,28.94c-3.34,3.34-5.21,7.85-5.21,12.53v12.29s28.99-28.98,28.99-28.98c3.35-3.35,5.23-7.89,5.21-12.6l-.05-12.18Z"/>
  <path d="m118.12.1l-10.18,10.18c-3.34,3.34-5.21,7.85-5.21,12.53v12.29s10.23-10.23,10.23-10.23c3.35-3.35,5.23-7.89,5.21-12.6l-.05-12.18Z"/>
  <path d="m81.56,0l10.18,10.18c3.34,3.34,5.21,7.85,5.21,12.53v12.29s-10.23-10.23-10.23-10.23c-3.35-3.35-5.23-7.89-5.21-12.6l.05-12.18Z"/>
  <path d="m100.22,95.39l-13.91-13.91c-3.74-3.74-5.81-8.84-5.71-14.1l.21-11.06s19.28,19.28,19.28,19.28l19.28-19.28.31,11.11c.15,5.28-1.88,10.37-5.6,14.09l-13.83,13.83"/>
</svg>