<?xml version="1.0" encoding="UTF-8"?>
<svg id="Layer_2" data-name="Layer 2" xmlns="http://www.w3.org/2000/svg" viewBox="0 0 142.33 142.33">
  <defs>
    <style>
      .cls-1 {
        fill: #221f1f;
        stroke-width: 0px;
      }
    </style>
  </defs>
  <g id="Layer_1-2" data-name="Layer 1">
    <g>
      <path class="cls-1" d="m84.95,40.08l-13.72,13.72-13.72-13.72-.15,7.87c-.07,3.74,1.4,7.37,4.06,10.03l9.9,9.9,6.99-6.99,2.87-2.87c2.65-2.65,4.09-6.27,3.98-10.03l-.22-7.9Z"/>
      <path class="cls-1" d="m40.06,84.98l20.69-20.69,7.08,7.08-9.84,9.84c-2.65,2.65-6.27,4.09-10.03,3.98l-7.9-.22Z"/>
      <path class="cls-1" d="m40.06,57.53l20.81,20.81,6.99-6.99-9.9-9.9c-2.66-2.66-6.29-4.13-10.03-4.06l-7.87.15Z"/>
      <path class="cls-1" d="m102.36,57.49l-7.9-.22c-3.76-.1-7.38,1.34-10.03,3.98l-2.87,2.87-6.99,6.99,9.9,9.9c2.66,2.66,6.29,4.13,10.03,4.06l7.87-.15-13.72-13.72,13.72-13.72Z"/>
      <path class="cls-1" d="m57.46,102.38l20.69-20.69-7.08-7.08-9.84,9.84c-2.65,2.65-4.09,6.27-3.98,10.03l.22,7.9Z"/>
      <path class="cls-1" d="m84.91,102.38l-20.81-20.81,6.99-6.99,9.9,9.9c2.66,2.66,4.13,6.29,4.06,10.03l-.15,7.87Z"/>
      <g>
        <path class="cls-1" d="m11.3,28.72l20.59,20.59c2.37,2.37,5.59,3.71,8.92,3.71h8.75s-20.63-20.63-20.63-20.63c-2.38-2.38-5.62-3.72-8.96-3.71l-8.67.04Z"/>
        <path class="cls-1" d="m28.69,11.33l20.59,20.59c2.37,2.37,3.71,5.59,3.71,8.92v8.75s-20.63-20.63-20.63-20.63c-2.38-2.38-3.72-5.62-3.71-8.96l.04-8.67Z"/>
      </g>
      <g>
        <path class="cls-1" d="m99.14,136.89l-20.59-20.59c-2.37-2.37-3.71-5.59-3.71-8.92v-8.75s20.63,20.63,20.63,20.63c2.38,2.38,3.72,5.62,3.71,8.96l-.04,8.67Z"/>
        <path class="cls-1" d="m43.26,136.83l20.59-20.59c2.37-2.37,3.71-5.59,3.71-8.92v-8.75s-20.63,20.63-20.63,20.63c-2.38,2.38-3.72,5.62-3.71,8.96l.04,8.67Z"/>
        <g>
          <path class="cls-1" d="m58.27,142.26l7.25-7.25c2.37-2.37,3.71-5.59,3.71-8.92v-8.75s-7.28,7.28-7.28,7.28c-2.38,2.38-3.72,5.62-3.71,8.96l.04,8.67Z"/>
          <path class="cls-1" d="m84.29,142.33l-7.25-7.25c-2.37-2.37-3.71-5.59-3.71-8.92v-8.75s7.28,7.28,7.28,7.28c2.38,2.38,3.72,5.62,3.71,8.96l-.04,8.67Z"/>
        </g>
      </g>
      <path class="cls-1" d="m5.44,43.19l20.59,20.59c2.37,2.37,5.59,3.71,8.92,3.71h8.75s-20.63-20.63-20.63-20.63c-2.38-2.38-5.62-3.72-8.96-3.71l-8.67.04Z"/>
      <path class="cls-1" d="m5.5,99.07l20.59-20.59c2.37-2.37,5.59-3.71,8.92-3.71h8.75s-20.63,20.63-20.63,20.63c-2.38,2.38-5.62,3.72-8.96,3.71l-8.67-.04Z"/>
      <g>
        <path class="cls-1" d="m.07,84.06l7.25-7.25c2.37-2.37,5.59-3.71,8.92-3.71h8.75s-7.28,7.28-7.28,7.28c-2.38,2.38-5.62,3.72-8.96,3.71l-8.67-.04Z"/>
        <path class="cls-1" d="m0,58.05l7.25,7.25c2.37,2.37,5.59,3.71,8.92,3.71h8.75s-7.28-7.28-7.28-7.28c-2.38-2.38-5.62-3.72-8.96-3.71l-8.67.04Z"/>
      </g>
      <g>
        <path class="cls-1" d="m113.92,131.33l-20.59-20.59c-2.37-2.37-3.71-5.59-3.71-8.92v-8.75s20.63,20.63,20.63,20.63c2.38,2.38,3.72,5.62,3.71,8.96l-.04,8.67Z"/>
        <path class="cls-1" d="m131.31,113.95l-20.59-20.59c-2.37-2.37-5.59-3.71-8.92-3.71h-8.75s20.63,20.63,20.63,20.63c2.38,2.38,5.62,3.72,8.96,3.71l8.67-.04Z"/>
      </g>
      <path class="cls-1" d="m28.46,131.18l20.9-20.9c2.41-2.41,3.76-5.67,3.76-9.05v-8.88s-20.94,20.93-20.94,20.93c-2.42,2.42-3.78,5.7-3.76,9.1l.04,8.8Z"/>
      <path class="cls-1" d="m11.21,113.93l20.9-20.9c2.41-2.41,5.67-3.76,9.05-3.76h8.88s-20.93,20.94-20.93,20.94c-2.42,2.42-5.7,3.78-9.1,3.76l-8.8-.04Z"/>
      <g>
        <path class="cls-1" d="m130.92,28.72l-20.59,20.59c-2.37,2.37-5.59,3.71-8.92,3.71h-8.75s20.63-20.63,20.63-20.63c2.38-2.38,5.62-3.72,8.96-3.71l8.67.04Z"/>
        <path class="cls-1" d="m113.53,11.33l-20.59,20.59c-2.37,2.37-3.71,5.59-3.71,8.92v8.75s20.63-20.63,20.63-20.63c2.38-2.38,3.72-5.62,3.71-8.96l-.04-8.67Z"/>
      </g>
      <g>
        <g>
          <path class="cls-1" d="m136.89,99.14l-20.59-20.59c-2.37-2.37-5.59-3.71-8.92-3.71h-8.75s20.63,20.63,20.63,20.63c2.38,2.38,5.62,3.72,8.96,3.71l8.67-.04Z"/>
          <path class="cls-1" d="m136.83,43.26l-20.59,20.59c-2.37,2.37-5.59,3.71-8.92,3.71h-8.75s20.63-20.63,20.63-20.63c2.38-2.38,5.62-3.72,8.96-3.71l8.67.04Z"/>
          <g>
            <path class="cls-1" d="m142.26,58.27l-7.25,7.25c-2.37,2.37-5.59,3.71-8.92,3.71h-8.75s7.28-7.28,7.28-7.28c2.38-2.38,5.62-3.72,8.96-3.71l8.67.04Z"/>
            <path class="cls-1" d="m142.33,84.29l-7.25-7.25c-2.37-2.37-5.59-3.71-8.92-3.71h-8.75s7.28,7.28,7.28,7.28c2.38,2.38,5.62,3.72,8.96,3.71l8.67-.04Z"/>
          </g>
        </g>
        <g>
          <path class="cls-1" d="m43.19,5.44l20.59,20.59c2.37,2.37,3.71,5.59,3.71,8.92v8.75s-20.63-20.63-20.63-20.63c-2.38-2.38-3.72-5.62-3.71-8.96l.04-8.67Z"/>
          <path class="cls-1" d="m99.07,5.5l-20.59,20.59c-2.37,2.37-3.71,5.59-3.71,8.92v8.75s20.63-20.63,20.63-20.63c2.38-2.38,3.72-5.62,3.71-8.96l-.04-8.67Z"/>
          <g>
            <path class="cls-1" d="m84.06.07l-7.25,7.25c-2.37,2.37-3.71,5.59-3.71,8.92v8.75s7.28-7.28,7.28-7.28c2.38-2.38,3.72-5.62,3.71-8.96l-.04-8.67Z"/>
            <path class="cls-1" d="m58.05,0l7.25,7.25c2.37,2.37,3.71,5.59,3.71,8.92v8.75s-7.28-7.28-7.28-7.28c-2.38-2.38-3.72-5.62-3.71-8.96l.04-8.67Z"/>
          </g>
        </g>
      </g>
    </g>
  </g>
</svg>