<?xml version="1.0" encoding="UTF-8"?>
<svg id="Layer_2" data-name="Layer 2" xmlns="http://www.w3.org/2000/svg" viewBox="0 0 277.67 220.01">
  <defs>
    <style>
      .cls-1 {
        fill: #211e1f;
      }

      .cls-1, .cls-2, .cls-3 {
        stroke-width: 0px;
      }

      .cls-2 {
        fill: #221f1f;
      }

      .cls-3 {
        fill: #fff;
      }
    </style>
  </defs>
  <g id="Layer_1-2" data-name="Layer 1">
    <g>
      <g>
        <path class="cls-1" d="m50.51,213.8h1.28l2.14,6.08h-1.28l-.41-1.29h-2.19l-.4,1.29h-1.25l2.12-6.08Zm-.18,3.84h1.61l-.54-1.75c-.1-.32-.25-.93-.25-.93h-.02s-.15.61-.26.93l-.54,1.75Z"/>
        <path class="cls-1" d="m63.68,219.06h-.02c-.42.7-.99.94-1.71.94-.92,0-1.63-.33-2.13-.88-.5-.56-.79-1.34-.79-2.26,0-1.01.36-1.9.99-2.48.49-.45,1.14-.7,1.96-.7,1.53,0,2.41.84,2.6,2.03h-1.21c-.14-.59-.59-1.01-1.37-1.01-1.15,0-1.72.95-1.72,2.16s.65,2.15,1.7,2.15c.94,0,1.56-.71,1.56-1.38v-.03h-1.46v-.95h2.56v3.23h-.93l-.04-.82Z"/>
        <path class="cls-1" d="m66.94,216.85c0-1.82,1.14-3.17,2.93-3.17s2.92,1.35,2.92,3.17-1.13,3.16-2.92,3.16-2.93-1.34-2.93-3.16Zm4.6,0c0-1.22-.54-2.16-1.66-2.16s-1.68.94-1.68,2.16.57,2.15,1.68,2.15,1.66-.94,1.66-2.15Z"/>
        <path class="cls-1" d="m75.17,213.8h2.37c1.62,0,2.67,1.31,2.67,3.1,0,.99-.33,1.85-.97,2.39-.45.37-1.04.59-1.8.59h-2.27v-6.08Zm2.18,5.01c1.16,0,1.61-.71,1.61-1.91s-.53-2.05-1.57-2.05h-.99v3.96h.95Z"/>
        <path class="cls-1" d="m82.58,213.8h2.79c1.17,0,1.96.68,1.96,1.69,0,.71-.33,1.26-1.11,1.47v.03c.56.16.85.48.93,1.22.08.86.05,1.51.26,1.61v.06h-1.18c-.15-.07-.17-.75-.22-1.4-.05-.66-.42-1.04-1.19-1.04h-.99v2.44h-1.23v-6.08Zm1.23,2.69h1.31c.67,0,1-.35,1-.83s-.31-.86-.97-.86h-1.34v1.69Z"/>
        <path class="cls-1" d="m89.82,213.8h4.47v1.04h-3.24v1.36h2.84v1.01h-2.84v1.64h3.26v1.03h-4.5v-6.08Z"/>
        <path class="cls-1" d="m96.46,218.22v-.6h1.1v.53c0,.61.28.85.78.85s.73-.3.73-.83v-4.36h1.23v4.37c0,1.04-.6,1.82-1.86,1.82s-1.99-.58-1.99-1.77Z"/>
        <path class="cls-1" d="m105.99,213.8h2.37c1.62,0,2.67,1.31,2.67,3.1,0,.99-.33,1.85-.97,2.39-.45.37-1.04.59-1.8.59h-2.27v-6.08Zm2.18,5.01c1.16,0,1.61-.71,1.61-1.91s-.53-2.05-1.57-2.05h-.99v3.96h.95Z"/>
        <path class="cls-1" d="m113.4,213.8h4.47v1.04h-3.24v1.36h2.84v1.01h-2.84v1.64h3.26v1.03h-4.5v-6.08Z"/>
        <path class="cls-1" d="m120.05,218h1.21c.08.73.5,1.02,1.37,1.02.63,0,1.18-.22,1.18-.78,0-.6-.58-.71-1.5-.93-1.09-.25-2.08-.54-2.08-1.8,0-1.2.98-1.82,2.33-1.82s2.25.67,2.35,1.9h-1.18c-.07-.61-.54-.92-1.17-.92-.66,0-1.1.28-1.1.71,0,.49.43.64,1.33.83,1.25.27,2.27.57,2.27,1.88,0,1.23-.99,1.92-2.36,1.92-1.65,0-2.58-.73-2.63-2.01Z"/>
        <path class="cls-1" d="m127.49,213.8h1.23v6.08h-1.23v-6.08Z"/>
        <path class="cls-1" d="m135.78,219.06h-.02c-.42.7-.99.94-1.71.94-.92,0-1.63-.33-2.13-.88-.5-.56-.79-1.34-.79-2.26,0-1.01.36-1.9.99-2.48.49-.45,1.14-.7,1.96-.7,1.53,0,2.41.84,2.6,2.03h-1.21c-.14-.59-.59-1.01-1.37-1.01-1.15,0-1.72.95-1.72,2.16s.65,2.15,1.7,2.15c.94,0,1.56-.71,1.56-1.38v-.03h-1.46v-.95h2.56v3.23h-.93l-.04-.82Z"/>
        <path class="cls-1" d="m139.3,213.8h1.25l2.02,3.39c.2.33.43.85.43.85h.02s-.03-.63-.03-1.05v-3.19h1.22v6.08h-1.19l-2.07-3.36c-.2-.32-.43-.84-.43-.84h-.02s.03.64.03,1.06v3.14h-1.21v-6.08Z"/>
        <path class="cls-1" d="m149.96,213.8h1.23v5.05h2.86v1.03h-4.09v-6.08Z"/>
        <path class="cls-1" d="m158.13,213.8h1.28l2.14,6.08h-1.28l-.41-1.29h-2.19l-.4,1.29h-1.25l2.12-6.08Zm-.18,3.84h1.61l-.54-1.75c-.1-.32-.25-.93-.25-.93h-.02s-.15.61-.26.93l-.54,1.75Z"/>
        <path class="cls-1" d="m163.76,213.8h2.72c.65,0,1.16.16,1.47.44.33.3.48.66.48,1.14,0,.62-.38,1.02-.95,1.22v.03c.67.2,1.13.76,1.13,1.5,0,.57-.18.96-.54,1.27-.35.31-.88.48-1.53.48h-2.79v-6.08Zm2.57,2.45c.54,0,.9-.25.9-.73,0-.45-.33-.71-.88-.71h-1.36v1.45h1.33Zm-1.33,2.61h1.42c.59,0,.95-.33.95-.82,0-.58-.42-.88-.99-.88h-1.38v1.7Z"/>
        <path class="cls-1" d="m174.17,213.8h1.23v6.08h-1.23v-6.08Z"/>
        <path class="cls-1" d="m178.05,213.8h1.25l2.02,3.39c.2.33.43.85.43.85h.02s-.03-.63-.03-1.05v-3.19h1.22v6.08h-1.19l-2.07-3.36c-.2-.32-.43-.84-.43-.84h-.02s.03.64.03,1.06v3.14h-1.21v-6.08Z"/>
        <path class="cls-1" d="m185.59,213.8h1.23v6.08h-1.23v-6.08Z"/>
        <path class="cls-1" d="m189.15,213.8h4.89v1.04h-1.83v5.04h-1.23v-5.04h-1.83v-1.04Z"/>
        <path class="cls-1" d="m196.36,213.8h1.23v6.08h-1.23v-6.08Z"/>
        <path class="cls-1" d="m201.91,213.8h1.28l2.14,6.08h-1.28l-.41-1.29h-2.19l-.4,1.29h-1.25l2.12-6.08Zm-.18,3.84h1.61l-.54-1.75c-.1-.32-.25-.93-.25-.93h-.02s-.15.61-.26.93l-.54,1.75Z"/>
        <path class="cls-1" d="m206.46,213.8h4.89v1.04h-1.83v5.04h-1.23v-5.04h-1.83v-1.04Z"/>
        <path class="cls-1" d="m213.68,213.8h1.23v6.08h-1.23v-6.08Z"/>
        <path class="cls-1" d="m217.1,213.8h1.29l1.07,3.52c.12.4.26.97.26.97h.02s.14-.58.26-.97l1.06-3.52h1.25l-2.05,6.08h-1.12l-2.05-6.08Z"/>
        <path class="cls-1" d="m224.51,213.8h4.47v1.04h-3.24v1.36h2.84v1.01h-2.84v1.64h3.26v1.03h-4.5v-6.08Z"/>
      </g>
      <g>
        <path class="cls-2" d="m152.62,40.08l-13.72,13.72-13.72-13.72-.15,7.87c-.07,3.74,1.4,7.37,4.06,10.03l9.9,9.9,6.99-6.99,2.87-2.87c2.65-2.65,4.09-6.27,3.98-10.03l-.22-7.9Z"/>
        <path class="cls-2" d="m107.73,84.98l20.69-20.69,7.08,7.08-9.84,9.84c-2.65,2.65-6.27,4.09-10.03,3.98l-7.9-.22Z"/>
        <path class="cls-2" d="m107.73,57.53l20.81,20.81,6.99-6.99-9.9-9.9c-2.66-2.66-6.29-4.13-10.03-4.06l-7.87.15Z"/>
        <path class="cls-2" d="m170.03,57.49l-7.9-.22c-3.76-.1-7.38,1.34-10.03,3.98l-2.87,2.87-6.99,6.99,9.9,9.9c2.66,2.66,6.29,4.13,10.03,4.06l7.87-.15-13.72-13.72,13.72-13.72Z"/>
        <path class="cls-2" d="m125.13,102.38l20.69-20.69-7.08-7.08-9.84,9.84c-2.65,2.65-4.09,6.27-3.98,10.03l.22,7.9Z"/>
        <path class="cls-2" d="m152.58,102.38l-20.81-20.81,6.99-6.99,9.9,9.9c2.66,2.66,4.13,6.29,4.06,10.03l-.15,7.87Z"/>
        <g>
          <path class="cls-2" d="m78.97,28.72l20.59,20.59c2.37,2.37,5.59,3.71,8.92,3.71h8.75s-20.63-20.63-20.63-20.63c-2.38-2.38-5.62-3.72-8.96-3.71l-8.67.04Z"/>
          <path class="cls-2" d="m96.36,11.33l20.59,20.59c2.37,2.37,3.71,5.59,3.71,8.92v8.75s-20.63-20.63-20.63-20.63c-2.38-2.38-3.72-5.62-3.71-8.96l.04-8.67Z"/>
        </g>
        <g>
          <path class="cls-2" d="m166.81,136.89l-20.59-20.59c-2.37-2.37-3.71-5.59-3.71-8.92v-8.75s20.63,20.63,20.63,20.63c2.38,2.38,3.72,5.62,3.71,8.96l-.04,8.67Z"/>
          <path class="cls-2" d="m110.93,136.83l20.59-20.59c2.37-2.37,3.71-5.59,3.71-8.92v-8.75s-20.63,20.63-20.63,20.63c-2.38,2.38-3.72,5.62-3.71,8.96l.04,8.67Z"/>
          <g>
            <path class="cls-2" d="m125.94,142.26l7.25-7.25c2.37-2.37,3.71-5.59,3.71-8.92v-8.75s-7.28,7.28-7.28,7.28c-2.38,2.38-3.72,5.62-3.71,8.96l.04,8.67Z"/>
            <path class="cls-2" d="m151.96,142.33l-7.25-7.25c-2.37-2.37-3.71-5.59-3.71-8.92v-8.75s7.28,7.28,7.28,7.28c2.38,2.38,3.72,5.62,3.71,8.96l-.04,8.67Z"/>
          </g>
        </g>
        <path class="cls-2" d="m73.11,43.19l20.59,20.59c2.37,2.37,5.59,3.71,8.92,3.71h8.75s-20.63-20.63-20.63-20.63c-2.38-2.38-5.62-3.72-8.96-3.71l-8.67.04Z"/>
        <path class="cls-2" d="m73.17,99.07l20.59-20.59c2.37-2.37,5.59-3.71,8.92-3.71h8.75s-20.63,20.63-20.63,20.63c-2.38,2.38-5.62,3.72-8.96,3.71l-8.67-.04Z"/>
        <g>
          <path class="cls-2" d="m67.74,84.06l7.25-7.25c2.37-2.37,5.59-3.71,8.92-3.71h8.75s-7.28,7.28-7.28,7.28c-2.38,2.38-5.62,3.72-8.96,3.71l-8.67-.04Z"/>
          <path class="cls-2" d="m67.67,58.05l7.25,7.25c2.37,2.37,5.59,3.71,8.92,3.71h8.75s-7.28-7.28-7.28-7.28c-2.38-2.38-5.62-3.72-8.96-3.71l-8.67.04Z"/>
        </g>
        <g>
          <path class="cls-2" d="m181.59,131.33l-20.59-20.59c-2.37-2.37-3.71-5.59-3.71-8.92v-8.75s20.63,20.63,20.63,20.63c2.38,2.38,3.72,5.62,3.71,8.96l-.04,8.67Z"/>
          <path class="cls-2" d="m198.98,113.95l-20.59-20.59c-2.37-2.37-5.59-3.71-8.92-3.71h-8.75s20.63,20.63,20.63,20.63c2.38,2.38,5.62,3.72,8.96,3.71l8.67-.04Z"/>
        </g>
        <path class="cls-2" d="m96.13,131.18l20.9-20.9c2.41-2.41,3.76-5.67,3.76-9.05v-8.88s-20.94,20.93-20.94,20.93c-2.42,2.42-3.78,5.7-3.76,9.1l.04,8.8Z"/>
        <path class="cls-2" d="m78.88,113.93l20.9-20.9c2.41-2.41,5.67-3.76,9.05-3.76h8.88s-20.93,20.94-20.93,20.94c-2.42,2.42-5.7,3.78-9.1,3.76l-8.8-.04Z"/>
        <g>
          <path class="cls-2" d="m198.59,28.72l-20.59,20.59c-2.37,2.37-5.59,3.71-8.92,3.71h-8.75s20.63-20.63,20.63-20.63c2.38-2.38,5.62-3.72,8.96-3.71l8.67.04Z"/>
          <path class="cls-2" d="m181.2,11.33l-20.59,20.59c-2.37,2.37-3.71,5.59-3.71,8.92v8.75s20.63-20.63,20.63-20.63c2.38-2.38,3.72-5.62,3.71-8.96l-.04-8.67Z"/>
        </g>
        <g>
          <g>
            <path class="cls-2" d="m204.56,99.14l-20.59-20.59c-2.37-2.37-5.59-3.71-8.92-3.71h-8.75s20.63,20.63,20.63,20.63c2.38,2.38,5.62,3.72,8.96,3.71l8.67-.04Z"/>
            <path class="cls-2" d="m204.5,43.26l-20.59,20.59c-2.37,2.37-5.59,3.71-8.92,3.71h-8.75s20.63-20.63,20.63-20.63c2.38-2.38,5.62-3.72,8.96-3.71l8.67.04Z"/>
            <g>
              <path class="cls-2" d="m209.93,58.27l-7.25,7.25c-2.37,2.37-5.59,3.71-8.92,3.71h-8.75s7.28-7.28,7.28-7.28c2.38-2.38,5.62-3.72,8.96-3.71l8.67.04Z"/>
              <path class="cls-2" d="m210,84.29l-7.25-7.25c-2.37-2.37-5.59-3.71-8.92-3.71h-8.75s7.28,7.28,7.28,7.28c2.38,2.38,5.62,3.72,8.96,3.71l8.67-.04Z"/>
            </g>
          </g>
          <g>
            <path class="cls-2" d="m110.86,5.44l20.59,20.59c2.37,2.37,3.71,5.59,3.71,8.92v8.75s-20.63-20.63-20.63-20.63c-2.38-2.38-3.72-5.62-3.71-8.96l.04-8.67Z"/>
            <path class="cls-2" d="m166.74,5.5l-20.59,20.59c-2.37,2.37-3.71,5.59-3.71,8.92v8.75s20.63-20.63,20.63-20.63c2.38-2.38,3.72-5.62,3.71-8.96l-.04-8.67Z"/>
            <g>
              <path class="cls-2" d="m151.73.07l-7.25,7.25c-2.37,2.37-3.71,5.59-3.71,8.92v8.75s7.28-7.28,7.28-7.28c2.38-2.38,3.72-5.62,3.71-8.96l-.04-8.67Z"/>
              <path class="cls-2" d="m125.72,0l7.25,7.25c2.37,2.37,3.71,5.59,3.71,8.92v8.75s-7.28-7.28-7.28-7.28c-2.38-2.38-3.72-5.62-3.71-8.96l.04-8.67Z"/>
            </g>
          </g>
        </g>
      </g>
      <g>
        <g>
          <g>
            <path class="cls-1" d="m0,197.67c0-5.1,3.26-9.25,8.5-9.25,4.15,0,6.9,2.38,7.51,6.12h-2.79c-.41-2.38-2.07-3.84-4.73-3.84-3.74,0-5.68,3.09-5.68,6.97s1.94,6.94,5.68,6.94c2.86,0,4.56-1.63,4.79-4.35h2.72c-.37,4.21-3.13,6.66-7.51,6.66-5.24,0-8.5-4.15-8.5-9.25Z"/>
            <path class="cls-1" d="m17.14,197.67c0-5.1,3.26-9.25,8.5-9.25s8.47,4.15,8.47,9.25-3.2,9.25-8.47,9.25-8.5-4.15-8.5-9.25Zm14.14,0c0-3.88-1.9-6.97-5.64-6.97s-5.68,3.09-5.68,6.97,1.94,6.94,5.68,6.94,5.64-3.06,5.64-6.94Z"/>
            <path class="cls-1" d="m39.1,191.18h.07c1.26-1.67,3.03-2.72,5.58-2.72,3.67,0,5.92,2.01,5.92,5.64v12.34h-2.75v-12.1c0-2.28-1.5-3.57-3.98-3.57-2.79,0-4.83,1.97-4.83,4.86v10.81h-2.75v-17.58h2.75v2.31Z"/>
            <path class="cls-1" d="m52.67,200.73h2.82c.37,3.06,2.41,3.91,5.03,3.91,2.89,0,4.08-1.26,4.08-2.89,0-1.97-1.36-2.48-4.59-3.16-3.47-.71-6.56-1.43-6.56-5.27,0-2.92,2.24-4.83,6.32-4.83,4.35,0,6.49,2.07,6.9,5.51h-2.82c-.27-2.31-1.53-3.33-4.15-3.33s-3.54,1.12-3.54,2.52c0,1.9,1.7,2.28,4.73,2.89,3.54.71,6.49,1.5,6.49,5.54,0,3.54-2.89,5.34-6.94,5.34-4.83,0-7.51-2.28-7.79-6.22Z"/>
            <path class="cls-1" d="m68.88,197.67c0-5.1,3.26-9.25,8.5-9.25,4.15,0,6.9,2.38,7.51,6.12h-2.79c-.41-2.38-2.07-3.84-4.73-3.84-3.74,0-5.68,3.09-5.68,6.97s1.94,6.94,5.68,6.94c2.86,0,4.56-1.63,4.79-4.35h2.72c-.37,4.21-3.13,6.66-7.51,6.66-5.24,0-8.5-4.15-8.5-9.25Z"/>
            <path class="cls-1" d="m87,188.87h2.75v17.58h-2.75v-17.58Z"/>
            <path class="cls-1" d="m92,197.67c0-5.1,3.26-9.25,8.5-9.25s8.47,4.15,8.47,9.25-3.2,9.25-8.47,9.25-8.5-4.15-8.5-9.25Zm14.14,0c0-3.88-1.9-6.97-5.64-6.97s-5.68,3.09-5.68,6.97,1.94,6.94,5.68,6.94,5.64-3.06,5.64-6.94Z"/>
            <path class="cls-1" d="m122.4,206.44v-2.41h-.07c-1.26,1.7-2.75,2.82-5.3,2.82-3.6,0-5.92-2.18-5.92-5.81v-12.17h2.75v12.1c0,2.28,1.46,3.6,3.94,3.6,2.79,0,4.59-2.11,4.59-4.9v-10.81h2.75v17.58h-2.75Z"/>
            <path class="cls-1" d="m127.26,200.73h2.82c.37,3.06,2.41,3.91,5.03,3.91,2.89,0,4.08-1.26,4.08-2.89,0-1.97-1.36-2.48-4.59-3.16-3.47-.71-6.56-1.43-6.56-5.27,0-2.92,2.24-4.83,6.32-4.83,4.35,0,6.49,2.07,6.9,5.51h-2.82c-.27-2.31-1.53-3.33-4.15-3.33s-3.54,1.12-3.54,2.52c0,1.9,1.7,2.28,4.72,2.89,3.54.71,6.49,1.5,6.49,5.54,0,3.54-2.89,5.34-6.94,5.34-4.83,0-7.51-2.28-7.79-6.22Z"/>
            <path class="cls-1" d="m148.03,197.67c0-5.1,3.26-9.25,8.5-9.25,4.15,0,6.9,2.38,7.51,6.12h-2.79c-.41-2.38-2.07-3.84-4.73-3.84-3.74,0-5.68,3.09-5.68,6.97s1.94,6.94,5.68,6.94c2.86,0,4.56-1.63,4.79-4.35h2.72c-.37,4.21-3.13,6.66-7.51,6.66-5.24,0-8.5-4.15-8.5-9.25Z"/>
            <path class="cls-1" d="m165.17,197.67c0-5.1,3.26-9.25,8.5-9.25s8.47,4.15,8.47,9.25-3.2,9.25-8.47,9.25-8.5-4.15-8.5-9.25Zm14.14,0c0-3.88-1.9-6.97-5.64-6.97s-5.68,3.09-5.68,6.97,1.94,6.94,5.68,6.94,5.64-3.06,5.64-6.94Z"/>
            <path class="cls-1" d="m184.48,182.13h2.75v24.31h-2.75v-24.31Z"/>
            <path class="cls-1" d="m190.67,182.13h2.75v24.31h-2.75v-24.31Z"/>
            <path class="cls-1" d="m195.77,197.67c0-5.1,3.33-9.25,8.33-9.25,5.27,0,8.09,4.08,8.09,9.89h-13.6c.2,3.57,2.14,6.29,5.68,6.29,2.55,0,4.25-1.22,4.86-3.6h2.69c-.82,3.77-3.57,5.92-7.55,5.92-5.37,0-8.5-4.15-8.5-9.25Zm2.89-1.43h10.57c-.17-3.5-1.97-5.64-5.13-5.64s-5.03,2.45-5.44,5.64Z"/>
            <path class="cls-1" d="m213.38,197.67c0-5.1,3.26-9.25,8.5-9.25,4.15,0,6.9,2.38,7.51,6.12h-2.79c-.41-2.38-2.07-3.84-4.73-3.84-3.74,0-5.68,3.09-5.68,6.97s1.94,6.94,5.68,6.94c2.86,0,4.56-1.63,4.79-4.35h2.72c-.37,4.21-3.13,6.66-7.51,6.66-5.24,0-8.5-4.15-8.5-9.25Z"/>
            <path class="cls-1" d="m230.38,188.87h2.55v-5.54h2.75v5.54h3.4v2.24h-3.4v11.42c0,1.22.65,1.63,1.77,1.63.54,0,1.16-.14,1.46-.24h.1v2.38c-.65.14-1.39.24-2.21.24-2.24,0-3.88-.92-3.88-3.4v-12.03h-2.55v-2.24Z"/>
            <path class="cls-1" d="m241.43,188.87h2.75v17.58h-2.75v-17.58Z"/>
            <path class="cls-1" d="m245.61,188.87h2.96l3.64,11.15c.51,1.56,1.16,3.71,1.16,3.71h.07s.65-2.18,1.16-3.71l3.71-11.15h2.86l-6.32,17.58h-3.06l-6.15-17.58Z"/>
            <path class="cls-1" d="m261.25,197.67c0-5.1,3.33-9.25,8.33-9.25,5.27,0,8.09,4.08,8.09,9.89h-13.6c.2,3.57,2.14,6.29,5.68,6.29,2.55,0,4.25-1.22,4.86-3.6h2.69c-.82,3.77-3.57,5.92-7.55,5.92-5.37,0-8.5-4.15-8.5-9.25Zm2.89-1.43h10.57c-.17-3.5-1.97-5.64-5.13-5.64s-5.03,2.45-5.44,5.64Z"/>
          </g>
          <g>
            <polygon class="cls-3" points="182.81 184.54 190.03 180.72 185.81 175.96 177.77 180.45 182.81 184.54"/>
            <polygon class="cls-3" points="190.44 183.72 197.66 179.91 193.44 175.14 185.4 179.63 190.44 183.72"/>
          </g>
        </g>
        <path class="cls-2" d="m94.01,184.34h-2.85c-.93,0-1.83.37-2.48,1.02l-1.72,1.72h2.86c.94,0,1.84-.37,2.49-1.03l1.7-1.71Z"/>
        <path class="cls-2" d="m248.42,184.34h-2.85c-.93,0-1.83.37-2.48,1.02l-1.72,1.72h2.86c.94,0,1.84-.37,2.49-1.03l1.7-1.71Z"/>
      </g>
    </g>
  </g>
</svg>