<svg class="gdl-wordmark" xmlns="http://www.w3.org/2000/svg" viewBox="0 0 134.9 107.26"><defs><style></style></defs><title>Asset 1</title><g id="Layer_2" data-name="Layer 2"><g id="Layer_1-2" data-name="Layer 1"><path d="M23.18,10.72a.34.34,0,0,1-.34-.33A5.67,5.67,0,0,0,22,7.49C20.64,5.36,18.12,5,16.61,5c-7.8,0-9.35,7.26-9.35,12.18,0,2.17.31,6.06,2.66,8.59,1.6,1.77,3.72,2.74,7.53,2.74a16.47,16.47,0,0,0,5-.54.35.35,0,0,0,.25-.34V21.52a.35.35,0,0,0-.35-.35h-5.5a.34.34,0,0,1-.35-.35V16.21a.34.34,0,0,1,.35-.35H29.19a.34.34,0,0,1,.35.35V31.59a.35.35,0,0,1-.23.34,33.42,33.42,0,0,1-11.46,1.69c-7.31,0-11.07-1.77-13.6-4.25C.66,25.87,0,20.77,0,17.41,0,6.07,7.09,0,16.79,0c4.12,0,8.37,1.15,10.89,4A9.52,9.52,0,0,1,30,10.36a.36.36,0,0,1-.35.36Z"/><path d="M45.09,10c8.1,0,11.6,5.49,11.6,11.74s-3.63,12-11.74,12c-6.37,0-11.42-3.95-11.42-11.79C33.53,16.52,36.27,10,45.09,10Zm.09,19.13c2.87,0,4.82-1.72,4.82-7.66,0-3-.57-7.08-4.91-7.08-4.79,0-4.83,5.53-4.83,7.57C40.26,27,41.94,29.14,45.18,29.14Z"/><path d="M75.64.93h5.9a.35.35,0,0,1,.35.35v28c0,1.15.07,2.39.14,3.25a.34.34,0,0,1-.34.38H75.75a.35.35,0,0,1-.34-.33l-.16-2.9A6.16,6.16,0,0,1,73,32.2a7.86,7.86,0,0,1-4.34,1.15c-6,0-9.52-4.12-9.52-11.12,0-7.39,4-12,9.87-12a7.18,7.18,0,0,1,6.14,2.85.08.08,0,0,0,.15-.06V1.28A.35.35,0,0,1,75.64.93ZM70.29,29.1a4.74,4.74,0,0,0,4.16-2.52,12,12,0,0,0,1.06-5.28c0-4.38-1.9-6.77-4.87-6.77-4.38,0-4.87,5.27-4.87,7.53C65.77,25.78,67,29.1,70.29,29.1Z"/><path d="M86.45,16c0-1-.15-3.75-.27-5.2a.34.34,0,0,1,.34-.38H92a.35.35,0,0,1,.35.34l.11,3.58a.08.08,0,0,0,.16,0c.85-1.83,2.39-4.14,7.13-4a.35.35,0,0,1,.34.35v5.18a.35.35,0,0,1-.38.34C93.39,15.81,93,19.14,93,21.88V32.56a.35.35,0,0,1-.35.35H86.8a.35.35,0,0,1-.35-.35Z"/><path d="M106.69,23.39a.17.17,0,0,0-.18.17c0,1.61.17,5.81,4.57,5.81a3.62,3.62,0,0,0,3.82-2.85.35.35,0,0,1,.34-.25h5.33a.34.34,0,0,1,.35.38,7.43,7.43,0,0,1-2.09,4.49c-1.64,1.73-4.56,2.61-7.84,2.61-1.91,0-5.54-.35-7.89-2.79-2-2.13-2.88-5.14-2.88-8.73s.89-8,4.66-10.58a11.19,11.19,0,0,1,6.28-1.86,9.61,9.61,0,0,1,9,5.4,16.17,16.17,0,0,1,1.34,7.86.34.34,0,0,1-.34.34Zm8-4.12a.18.18,0,0,0,.17-.18c0-1.24-.28-4.83-3.9-4.83-2.81,0-4,2.28-4.19,4.82a.17.17,0,0,0,.17.19Z"/><path d="M121.79,37.42a.36.36,0,0,1,.35-.35c2.62-.09,2.62-2.7,2.62-3.81V10.8a.35.35,0,0,1,.35-.35H131a.35.35,0,0,1,.35.35V34.9c0,4.21-1.73,6.78-7.31,6.78a12.59,12.59,0,0,1-1.92-.13.34.34,0,0,1-.3-.34ZM124.89.93h6.3a.35.35,0,0,1,.35.35v5a.35.35,0,0,1-.35.34h-6.3a.35.35,0,0,1-.35-.34v-5A.35.35,0,0,1,124.89.93Z"/><path d="M1.2,38.23a.35.35,0,0,1,.35-.35l10.23,0c1.77,0,7.18,0,11,2.88,4,3,5.45,8,5.45,12.57,0,9.84-5.27,15-11.34,16.08a29.88,29.88,0,0,1-5.76.36H1.54a.35.35,0,0,1-.34-.35Zm7,26.15a.18.18,0,0,0,.16.18c.75,0,1.8.07,2.54.07,2.92,0,5.45-.22,7.44-2.21,2.7-2.7,2.88-7.49,2.88-9,0-4.51-1.55-8.68-5.84-9.87-1.4-.4-3.19-.62-7-.45a.18.18,0,0,0-.17.17Z"/><path d="M37.51,60.29a.17.17,0,0,0-.17.17c0,1.62.16,5.81,4.56,5.81a3.62,3.62,0,0,0,3.83-2.84.34.34,0,0,1,.33-.26h5.33a.35.35,0,0,1,.35.39,7.43,7.43,0,0,1-2.09,4.49c-1.64,1.72-4.56,2.61-7.84,2.61-1.91,0-5.54-.36-7.89-2.79-2-2.13-2.87-5.14-2.87-8.73s.88-8,4.65-10.58A11.12,11.12,0,0,1,42,46.7a9.61,9.61,0,0,1,9,5.4A16.31,16.31,0,0,1,52.37,60a.35.35,0,0,1-.35.33Zm8-4.12a.18.18,0,0,0,.17-.17c0-1.24-.28-4.83-3.9-4.83-2.81,0-4,2.28-4.19,4.82a.17.17,0,0,0,.18.18Z"/><path d="M59.84,63.35a.35.35,0,0,1,.34.31c.19,1.33,1.14,2.75,3.68,2.75,2.35,0,3.46-1.33,3.46-2.66,0-1-.53-1.82-3.1-2.53l-4.08-1.1c-1.81-.53-5.67-1.64-5.67-6.2,0-4.34,4-7,9.79-7,4.48,0,8.12,2,8.48,6.22a.35.35,0,0,1-.35.38H67.1a.35.35,0,0,1-.34-.31c-.32-2.19-2.19-2.35-3.16-2.35-1.77,0-3.1.84-3.1,2.21s1.11,1.82,3,2.35l4,1.11c4.07,1.11,6,3.19,6,6.24,0,3.86-3.33,7.71-10.28,7.71-2.88,0-5.63-.62-7.66-2.74a6.15,6.15,0,0,1-1.62-4,.34.34,0,0,1,.35-.37Z"/><path d="M76.75,37.84h6.3a.35.35,0,0,1,.35.35v5a.35.35,0,0,1-.35.35h-6.3a.34.34,0,0,1-.35-.35v-5A.34.34,0,0,1,76.75,37.84ZM77,47.4h5.86a.35.35,0,0,1,.34.35V69.47a.35.35,0,0,1-.34.35H77a.35.35,0,0,1-.35-.35V47.75A.35.35,0,0,1,77,47.4Z"/><path d="M108.66,47.54a.35.35,0,0,1,.34.38,47.75,47.75,0,0,0-.27,5.15V69.6c0,8.23-6.87,9-11.16,9-3.13,0-9.2-.38-9.81-6.79a.36.36,0,0,1,.35-.38h5.61a.35.35,0,0,1,.35.28c.15.89.74,2.82,3.85,2.82A3.83,3.83,0,0,0,102,71.63a22.44,22.44,0,0,0,.3-5,.08.08,0,0,0-.15,0,7,7,0,0,1-5.87,2.84c-6.42,0-9.43-5.58-9.43-11,0-5.67,3.14-11.07,9.57-11.07a6.77,6.77,0,0,1,6,2.79.17.17,0,0,0,.31-.09l.16-2.16a.34.34,0,0,1,.35-.32ZM97.79,64.9c4.61,0,4.61-5.4,4.61-6.38,0-2.52-.49-6.82-4.48-6.82-2.48,0-4.52,1.91-4.52,6.69C93.4,59.5,93.4,64.9,97.79,64.9Z"/><path d="M113.87,51.44c0-.09,0-2.17-.11-3.71a.35.35,0,0,1,.35-.37h5.58a.35.35,0,0,1,.35.33l.14,2.76c0,.08.12.12.16,0,.74-1.16,2.58-3.66,7.12-3.66,4.39,0,6.25,2.66,6.82,4.21.49,1.37.62,2.52.62,6.68V69.47a.35.35,0,0,1-.34.35h-6a.35.35,0,0,1-.34-.35V55.91a5.28,5.28,0,0,0-.36-2.44,3.42,3.42,0,0,0-3.19-1.9,4.07,4.07,0,0,0-3.41,1.73,6.09,6.09,0,0,0-.79,3.41V69.47a.35.35,0,0,1-.35.35h-5.91a.35.35,0,0,1-.34-.35Z"/><path d="M1.72,74.75H8a.34.34,0,0,1,.35.34v26a.18.18,0,0,0,.18.18h13.2a.34.34,0,0,1,.35.34v4.76a.34.34,0,0,1-.35.34h-20a.35.35,0,0,1-.35-.34V75.09A.35.35,0,0,1,1.72,74.75Z"/><path d="M38.09,106.42a15.74,15.74,0,0,1-.17-2.22.18.18,0,0,0-.32-.1,7.36,7.36,0,0,1-6.38,3.16c-3.23,0-4.69-.93-5.58-1.78a6.9,6.9,0,0,1-1.95-4.91,7.45,7.45,0,0,1,4.74-7c2.68-1.2,6.49-1.24,8.69-1.24a.17.17,0,0,0,.17-.18A8,8,0,0,0,37,89.41a3,3,0,0,0-2.92-1.86,3,3,0,0,0-2.48,1.24,3,3,0,0,0-.48,1.65.35.35,0,0,1-.35.34H25a.34.34,0,0,1-.34-.37,6.08,6.08,0,0,1,2.5-4.9A11.72,11.72,0,0,1,34,83.69c1.86,0,5.76.31,8,2.88,1.51,1.82,1.55,4.47,1.55,5.49l0,9a27.21,27.21,0,0,0,.45,5.26.34.34,0,0,1-.34.41H38.44A.35.35,0,0,1,38.09,106.42Zm-8-6.61A3.08,3.08,0,0,0,33.26,103a3.7,3.7,0,0,0,2.79-1.28c1.15-1.42,1.24-3.15,1.24-5.54C33.09,95.83,30.07,97.16,30.07,99.81Z"/><path d="M48.36,74.79h5.86a.35.35,0,0,1,.35.35V86.81a.08.08,0,0,0,.15,0,7.53,7.53,0,0,1,6.18-2.81c5.45,0,9.74,4.29,9.74,11.82,0,8.37-4.87,11.3-9.34,11.3A7.47,7.47,0,0,1,54.84,104a.17.17,0,0,0-.31.09c0,.6-.07,1.37-.16,2.29a.34.34,0,0,1-.34.32H48.36a.35.35,0,0,1-.35-.34V75.14A.35.35,0,0,1,48.36,74.79ZM59.13,88.43c-4.83,0-4.83,5.49-4.83,6.91,0,5.09,2.17,7.53,5.14,7.53,4.51,0,4.51-5.62,4.51-6.78C64,94.32,63.87,88.43,59.13,88.43Z"/></g></g></svg>
